<svg width="512" height="512" viewBox="0 0 512 512" fill="none" xmlns="http://www.w3.org/2000/svg">
  <!-- Transparent background -->

  <path d="M234 92
           C158 92 100 150 100 226
           C100 302 158 360 238 360
           C300 360 347 328 364 277
           H239
           V212
           H450
           C453 225 454 238 454 252
           C454 359 368 440 239 440
           C119 440 36 352 36 226
           C36 111 123 24 234 24
           C299 24 353 48 392 90
           L342 127
           C315 104 279 92 234 92Z"
        fill="#0F172A"/>

  <circle cx="372" cy="62" r="28" fill="#2563EB"/>
  <circle cx="372" cy="62" r="11" fill="#FFFFFF"/>

  <path d="M86 330 L178 422 L420 162"
        stroke="#2563EB"
        stroke-width="52"
        stroke-linecap="round"
        stroke-linejoin="round"/>

  <path d="M367 219 L420 162"
        stroke="#38BDF8"
        stroke-width="22"
        stroke-linecap="round"/>
</svg>